<svg xmlns="http://www.w3.org/2000/svg" viewBox="0 0 800 800"><defs><style>.cls-1{fill:#fff;}.cls-2{fill:#e9636a;fill-rule:evenodd;}.cls-2,.cls-3{opacity:0.6;}.cls-4{fill:#fdf4c4;}</style></defs><g id="Layer_1" data-name="Layer 1"><rect class="cls-1" y="0.01" width="799.98" height="799.98"/><polygon class="cls-2" points="800 796.1 800 283.29 659.16 234.42 636.64 299.31 451.13 92.02 447.98 88.58 444.74 85.17 441.41 81.81 437.98 78.5 434.46 75.24 430.85 72.03 427.14 68.88 423.35 65.79 419.47 62.77 415.5 59.81 411.44 56.92 407.3 54.11 403.07 51.38 398.77 48.73 394.39 46.16 389.93 43.68 385.4 41.29 380.79 38.99 376.12 36.8 371.39 34.7 366.59 32.7 361.73 30.81 356.82 29.02 351.86 27.35 346.85 25.78 341.79 24.33 336.69 23 331.56 21.78 326.4 20.68 321.2 19.7 315.99 18.84 310.75 18.1 305.5 17.48 300.23 16.98 294.96 16.61 289.68 16.36 284.41 16.23 279.14 16.23 273.88 16.35 268.64 16.58 263.41 16.94 258.21 17.42 253.03 18.01 247.88 18.72 242.77 19.55 237.69 20.48 232.66 21.53 227.67 22.69 222.72 23.95 217.83 25.32 212.99 26.79 208.21 28.36 203.49 30.02 198.84 31.78 194.24 33.63 189.72 35.57 185.26 37.59 180.88 39.7 176.57 41.88 172.34 44.14 168.18 46.47 164.1 48.87 160.1 51.34 156.18 53.87 0 191.04 0 270.4 86.14 366.65 248.6 548.18 395.19 711.98 537.69 584.45 474.39 766.86 569.88 800 798.65 800 800 796.1"/><g class="cls-3"><polygon class="cls-4" points="537.69 584.45 395.19 711.98 248.6 548.18 86.14 366.65 0 270.4 0 800 569.88 800 474.39 766.86 537.69 584.45"/><polygon class="cls-4" points="800 800 800 796.1 798.65 800 800 800"/><polygon class="cls-4" points="0 0 0 191.04 156.18 53.87 160.1 51.34 164.1 48.87 168.18 46.47 172.34 44.14 176.57 41.88 180.88 39.7 185.26 37.59 189.72 35.57 194.24 33.63 198.84 31.79 203.49 30.02 208.21 28.36 212.99 26.79 217.83 25.32 222.72 23.95 227.67 22.69 232.66 21.53 237.69 20.48 242.77 19.55 247.88 18.72 253.03 18.01 258.21 17.42 263.41 16.94 268.64 16.58 273.88 16.35 279.14 16.23 284.41 16.23 289.68 16.36 294.96 16.61 300.23 16.98 305.5 17.48 310.75 18.1 315.99 18.84 321.2 19.7 326.4 20.68 331.56 21.78 336.69 23 341.79 24.33 346.85 25.78 351.86 27.35 356.82 29.02 361.73 30.81 366.59 32.7 371.39 34.7 376.12 36.8 380.79 38.99 385.4 41.29 389.93 43.68 394.39 46.16 398.77 48.73 403.07 51.38 407.3 54.11 411.44 56.92 415.5 59.81 419.47 62.77 423.35 65.79 427.14 68.88 430.85 72.03 434.46 75.24 437.98 78.5 441.41 81.81 444.74 85.17 447.98 88.58 451.13 92.02 636.64 299.31 659.16 234.42 800 283.29 800 0 0 0"/></g></g></svg>