<?xml version="1.0" encoding="UTF-8"?>
<svg width="151px" height="37px" viewBox="0 0 151 37" version="1.1" xmlns="http://www.w3.org/2000/svg" xmlns:xlink="http://www.w3.org/1999/xlink">
    <title>logo</title>
    <defs>
        <polygon id="path-1" points="0.298917197 0.038343949 101.073567 0.038343949 101.073567 21.6975796 0.298917197 21.6975796"></polygon>
        <polygon id="path-3" points="0 0 35.0323567 0 35.0323567 21.0203503 0 21.0203503"></polygon>
    </defs>
    <g id="Symbols" stroke="none" stroke-width="1" fill="none" fill-rule="evenodd">
        <g id="navigation" transform="translate(-27.000000, -20.000000)">
            <g id="logo" transform="translate(27.000000, 20.575000)">
                <g id="Group-3" transform="translate(48.726115, 6.687898)">
                    <mask id="mask-2" fill="white">
                        <use xlink:href="#path-1"></use>
                    </mask>
                    <g id="Clip-2"></g>
                    <path d="M79.173121,2.07019108 L79.173121,2.07019108 C79.173121,3.19216561 80.0826752,4.1020383 81.2049682,4.1020383 C82.3272611,4.10235669 83.2371338,3.19216561 83.2368154,2.07019108 C83.2368154,0.947898089 82.3269427,0.038343949 81.2049682,0.038343949 C80.0826752,0.038343949 79.173121,0.947898089 79.173121,2.07019108 L79.173121,2.07019108 Z M66.9979618,19.2042675 C65.5546497,19.2042675 64.8530573,18.5456688 64.8530573,17.1908917 C64.8530573,16.2717834 65.2030573,15.6498089 65.8935032,15.3428025 C66.5817197,15.0373885 67.373758,14.8819745 68.2473248,14.8819745 C68.6635669,14.8819745 69.0734395,14.9042675 69.4642038,14.9482166 C69.7858599,14.9832484 70.4049682,15.0549045 70.6218471,15.0803822 L70.6215287,15.6205096 C70.5342675,16.7940764 70.1129299,17.6969427 69.3699363,18.2982166 C68.6266242,18.899172 67.8288535,19.2042675 66.9979618,19.2042675 L66.9979618,19.2042675 Z M75.9087898,21.1135032 L75.878535,19.3533121 C75.617707,19.421465 75.3950955,19.4558599 75.2161146,19.4558599 C74.6775796,19.4558599 74.0358599,19.2112739 74.0358599,18.0456688 L74.0358599,11.4055414 C74.0358599,9.77910828 73.5116561,8.54312102 72.4782166,7.73324841 C71.4368153,6.91828025 70.0909554,6.50426752 68.4772611,6.50426752 C67.3715287,6.50426752 66.3829936,6.6033121 65.54,6.79789809 C64.7078344,6.98993631 63.7450955,7.34535032 62.6788535,7.85394904 L62.0798089,11.3864331 L64.723758,11.6635032 L65.3052866,9.43420382 L65.3422293,9.4144586 C65.7221656,9.21286624 66.1250318,9.07719745 66.5390446,9.01 C66.9463694,8.94375796 67.3884076,8.91063694 67.8527389,8.91063694 C69.1151592,8.91063694 69.9186624,9.28324841 70.2412739,10.0192357 C70.5517834,10.7303822 70.7094268,11.5392994 70.7094268,12.4243312 L70.7094268,13.3536306 L70.6027389,13.3412102 C70.2288535,13.2975796 69.8215287,13.2644586 69.3931847,13.243121 C68.9559236,13.221465 68.5301274,13.21 68.1157962,13.21 C66.4485987,13.21 64.8788535,13.5010828 63.4501911,14.0743312 C62.0505096,14.6367516 61.3409554,15.8179618 61.3409554,17.5857962 C61.3409554,19.0994904 61.829172,20.1724204 62.7915924,20.7752866 C63.7683439,21.387707 64.7747134,21.6975796 65.7817197,21.6975796 C66.9371338,21.6975796 67.9186624,21.3947134 68.6985987,20.7972611 C69.483949,20.1950318 70.100828,19.5074522 70.5310828,18.754586 L70.7094268,18.4421656 L70.7094268,18.8603185 C70.8591083,20.7692357 71.8170701,21.6975796 73.6380892,21.6975796 C74.4527389,21.6975796 75.2164331,21.5010828 75.9087898,21.1135032 L75.9087898,21.1135032 Z M99.3638854,19.9077707 C100.332675,18.7389809 100.907516,17.5087261 101.073758,16.2488535 L98.2985987,15.7249682 C97.9027389,17.9389809 96.7600637,19.0612739 94.900828,19.0612739 C92.329172,19.0612739 91.0250318,17.4141401 91.0250318,14.1663694 C91.0250318,10.8313376 92.296051,9.14025478 94.8024204,9.14025478 C95.7110191,9.14025478 96.5877707,9.34216561 97.4081529,9.74152866 L97.4505096,9.7622293 L97.9361783,12.1561783 L100.577898,11.8800637 L100.006879,7.88133758 C99.1766242,7.3966242 98.3247134,7.04280255 97.4747134,6.83070064 C96.6091083,6.61414013 95.7320382,6.50426752 94.8680255,6.50426752 C92.6912739,6.50426752 90.906242,7.22433121 89.5629299,8.6443949 C88.2167516,10.065414 87.5342675,11.9791083 87.5342675,14.3313376 C87.5342675,16.7259236 88.1938217,18.5717834 89.4938217,19.8179618 C90.7950955,21.0650955 92.5036943,21.6975796 94.5724841,21.6975796 C96.7670701,21.6975796 98.3794904,21.0953503 99.3638854,19.9077707 L99.3638854,19.9077707 Z M85.8186624,21.3695541 L85.8186624,18.9472611 L83.683949,18.9472611 L83.683949,7.37369427 L78.2352229,7.37369427 L78.2352229,9.82783439 L80.4973248,9.82783439 L80.4973248,18.9472611 L78.3626115,18.9472611 L78.3626115,21.3695541 L85.8186624,21.3695541 Z M56.7549682,20.4966242 C57.9804459,19.7084076 58.6011465,18.5520382 58.6011465,17.0590446 C58.6011465,15.9294268 58.3126115,15.0733758 57.7425478,14.5144586 C57.1651592,13.9478981 56.4377707,13.5357962 55.5801274,13.2886624 C54.7103822,13.0389809 53.8288535,12.8405732 52.9616561,12.6998089 C52.079172,12.5558599 51.3310828,12.3606369 50.7380892,12.1189172 C50.1100637,11.8625478 49.7912739,11.4010828 49.7912739,10.7478981 C49.7912739,10.1227389 50.045414,9.65840764 50.5457325,9.36732484 C51.0294904,9.08547771 51.6263057,8.94312102 52.3192994,8.94312102 C53.2033758,8.94312102 54.0887261,9.11095541 54.9505096,9.44280255 L55.0033758,9.46286624 L55.2941401,11.6284713 L57.8689809,11.3217834 L57.5218471,7.81700637 C55.8686624,6.94598726 54.0858599,6.50426752 52.2208917,6.50426752 C50.7950955,6.50426752 49.4208917,6.82178344 48.1374522,7.44789809 C46.8750318,8.06318471 46.2349045,9.21796178 46.2349045,10.8794268 C46.2349045,12.0093631 46.529172,12.865414 47.1097452,13.4236943 C47.6979618,13.9915287 48.4419108,14.403949 49.3212102,14.6501274 C50.2129299,14.9004459 51.1161146,15.0988535 52.0056051,15.2392994 C52.9110191,15.3835669 53.6759873,15.5908917 54.2804459,15.8542675 C54.9183439,16.1329299 55.2419108,16.6049045 55.2419108,17.2568153 C55.2419108,17.9294268 54.8861783,18.4396178 54.184586,18.7727389 C53.506879,19.0953503 52.7024204,19.2584076 51.7935032,19.2584076 C51.4170701,19.2584076 50.9868153,19.2252866 50.5148408,19.1596815 C50.0361783,19.0928025 49.5804459,18.9689172 49.1594268,18.7912102 L49.0998726,18.766051 L49.1323567,16.8829299 L46.5501911,16.6367516 L46.0457325,20.2953503 C46.8747134,20.7552229 47.8142038,21.1061783 48.84,21.337707 C49.8906369,21.5765605 50.9501911,21.6975796 51.9903185,21.6975796 C53.9135669,21.6975796 55.5167516,21.293758 56.7549682,20.4966242 L56.7549682,20.4966242 Z M39.1581529,10.3217834 C39.9269427,11.1695541 40.3170701,12.4077707 40.3170701,14.0023567 C40.3170701,15.5068153 39.9450955,16.7488535 39.2119745,17.6928025 C38.473758,18.6447134 37.4419108,19.126879 36.145414,19.126879 C34.8027389,19.126879 33.7750318,18.6265605 33.0915924,17.6396178 C32.4148408,16.6638217 32.0718471,15.4510828 32.0718471,14.0348408 C32.0718471,12.5294268 32.4326752,11.3093631 33.1447771,10.4087261 C33.8613376,9.50140127 34.8712102,9.04152866 36.145414,9.04152866 C37.3728025,9.04152866 38.3864968,9.47242038 39.1581529,10.3217834 L39.1581529,10.3217834 Z M41.6180255,19.604586 C43.0492357,18.216051 43.7750318,16.3638217 43.7750318,14.1007643 C43.7750318,12.0520382 43.1409554,10.2472611 41.8903185,8.73738854 C40.6435032,7.23356688 38.7326752,6.47050955 36.2110191,6.47050955 C33.7103822,6.47050955 31.7995541,7.23898089 30.5310828,8.75394904 C29.2587898,10.2746497 28.6138854,12.1176433 28.6138854,14.232293 C28.6138854,16.5176433 29.2957325,18.3533121 30.6403185,19.6873885 C31.9842675,21.021465 33.7922293,21.6975796 36.0135669,21.6975796 C38.2995541,21.6975796 40.1852229,20.9934395 41.6180255,19.604586 L41.6180255,19.604586 Z M18.8186624,21.3695541 L18.8186624,18.4625478 L20.9052866,18.4625478 L20.9052866,8.13165605 L20.6215287,8.13165605 L14.4591083,19.8695541 L12.9438217,19.8695541 L6.4556051,7.83834395 L6.17248408,7.83834395 L6.17248408,18.4625478 L8.38968153,18.4625478 L8.38968153,21.3695541 L0.559745223,21.3695541 L0.559745223,18.4625478 L2.97248408,18.4625478 L2.97248408,3.27369427 L0.298917197,3.27369427 L0.298917197,0.366687898 L5.88522293,0.366687898 L13.7100637,14.8106369 L13.9559236,14.8106369 L21.3896815,0.366687898 L27.006879,0.366687898 L27.006879,3.27369427 L24.3333121,3.27369427 L24.3333121,18.4625478 L26.7463694,18.4625478 L26.7463694,21.3695541 L18.8186624,21.3695541 Z" id="Fill-1" fill="#011721" mask="url(#mask-2)"></path>
                </g>
                <polygon id="Fill-4" fill="#011721" points="14.0130892 17.5157643 17.5159554 21.0202229 21.0194586 17.5157643 17.5159554 14.0128981"></polygon>
                <polygon id="Fill-6" fill="#011721" opacity="0.5" points="7.00640127 24.5230573 10.509586 28.0259236 14.0130892 24.5230573 10.509586 21.0201911"></polygon>
                <polygon id="Fill-8" fill-opacity="0.7" fill="#011721" points="21.0194586 24.5230573 24.5223248 28.0259236 28.025828 24.5230573 24.5223248 21.0201911"></polygon>
                <polygon id="Fill-10" fill-opacity="0.25" fill="#011721" points="14.0130892 31.5285032 17.5159554 35.0316879 21.0194586 31.5285032 17.5159554 28.0256369"></polygon>
                <g id="Group-14">
                    <mask id="mask-4" fill="white">
                        <use xlink:href="#path-3"></use>
                    </mask>
                    <g id="Clip-13"></g>
                    <polygon id="Fill-12" fill="#011721" mask="url(#mask-4)" points="17.5157962 -3.18471338e-05 -0.000127388535 17.5158917 3.50369427 21.0203503 17.5157962 7.00729299 31.5294904 21.0203503 35.0323567 17.5158917"></polygon>
                </g>
            </g>
        </g>
    </g>
</svg>