<svg id="Layer_1" data-name="Layer 1" xmlns="http://www.w3.org/2000/svg" viewBox="0 0 1000 600"><defs><style>.cls-1{fill:#fdf4c4;}.cls-2{fill:#fbe9cf;}.cls-3{fill:#f3bbbd;}.cls-4{fill:#fc0000;fill-rule:evenodd;}.cls-5{fill:#f66;}</style></defs><polygon class="cls-1" points="942.71 516.57 960.13 506.5 977.56 496.43 994.99 486.37 995 486.37 995 481.84 995 460.7 994.99 460.7 994.98 456.18 995 456.18 994.99 445.62 877.31 377.71 825.02 407.91 825.03 448.68 840.72 457.72 840.72 457.73 845.96 460.75 914.52 500.3 933.55 511.29 942.71 516.57"/><polygon class="cls-2" points="522.07 343.22 454.93 326.74 272.61 166.39 90.52 132.91 5 352.86 397.2 481.67 461.21 506.54 522.07 343.22"/><polygon class="cls-3" points="399.61 5.61 597.13 19.21 586.88 156.75 389.44 142.24 399.61 5.61"/><g id="POLYLINE"><polygon class="cls-3" points="369.17 591.05 175.54 576.39 208.95 121.42 208.75 121.47 211.62 82.38 320.41 89.92 327.01 0.11 350.94 1.87 350.92 2.21 410.62 6.25 369.17 591.05"/></g><rect class="cls-3" x="385.12" y="143.58" width="71.53" height="105.34" transform="translate(15.51 -30.3) rotate(4.2)"/><path class="cls-4" d="M793.27,471.6,681.65,508.8H552.44l-.06,43.08-144,48-153.33-460L639.94,11.62l153.33,460"/><polygon class="cls-5" points="807.48 397.66 485.09 397.66 485.09 269.86 573.75 150.04 740.25 126.72 841.46 126.72 841.46 293.67 807.48 397.66"/></svg>