<svg xmlns="http://www.w3.org/2000/svg" viewBox="0 0 800 800"><defs><style>.cls-1{fill:#fff;}.cls-2{fill:#fdf4c4;fill-rule:evenodd;}.cls-2,.cls-3{opacity:0.6;}.cls-3{fill:#e9636a;}</style></defs><g id="Layer_1" data-name="Layer 1"><rect class="cls-1" width="800" height="800"/><polygon class="cls-2" points="460.91 351.21 521.05 351.21 531.02 351.21 734.89 351.21 707.65 127.88 460.91 127.88 450.94 127.88 190.67 127.8 190.67 431.01 14.99 452.47 0 452.49 0 800 446.41 800 446.41 698.26 731.2 698.28 731.2 524.37 446.41 524.37 446.41 351.19 460.91 351.21"/><polygon class="cls-3" points="0 0 0 452.49 14.99 452.47 190.67 431.01 190.67 127.8 450.94 127.88 460.91 127.88 707.65 127.88 734.89 351.21 531.02 351.21 521.05 351.21 460.91 351.21 446.41 351.19 446.41 524.37 731.2 524.37 731.2 698.28 446.41 698.26 446.41 800 800 800 800 0 0 0"/></g></svg>