<svg id="Layer_1" data-name="Layer 1" xmlns="http://www.w3.org/2000/svg" viewBox="0 0 1000 700"><defs><style>.cls-1{fill:#f66;}.cls-2{fill:#fc0000;}</style></defs><polygon class="cls-1" points="802.95 578.05 517.76 681.76 426.54 633.75 5 115.22 11.72 95.06 471.67 18.24 910.5 453.23 995 486.83 988.28 510.84 874.97 554.05 792.39 519.48 649.32 389.85 632.03 373.53 680.04 359.12 524.49 133.47 247.94 127.71 380.45 355.28 380.45 355.28 461.23 351.44 504.32 458.99 554.25 459.95 807.75 555.01 802.95 578.05"/><polygon class="cls-2" points="474.55 384.09 551.37 374.49 523.53 132.51 246.98 126.75 380.45 356.24 462.07 352.4 474.55 384.09"/></svg>