<svg width="198" height="50" viewBox="0 0 198 50" fill="none" xmlns="http://www.w3.org/2000/svg">
<path d="M11.88 8.4H17.424V11.6H19.8V2H17.424V6H11.88V2H9.504V11.6H11.88V8.4ZM27.72 9.68H23.76V8.08H26.928V6H23.76V4.4H27.72V2H21.384V11.6H27.72V9.68ZM34.056 5.68H34.452L40.0752 11.68H42.768V2H40.392V8.16H39.996L34.452 2H31.68V11.6H34.056V5.68ZM50.688 9.68H45.936V8.08H49.896V6H45.936V4.4H50.688V2H43.56V11.6H50.688V9.68ZM57.8952 11.6L59.8752 4.16H60.5088L62.7264 11.6H66.924L69.696 2H67.0032L65.1816 9.36H64.6272L62.4096 2H58.0536L56.1528 9.36H55.5984L53.3808 2H50.688L53.6976 11.6H57.8952ZM77.22 9.12C77.22 9.6 76.9824 9.92 75.8736 9.92C74.7648 9.92 73.656 9.68 72.6264 9.2L72.5472 11.36C73.5768 11.76 74.6856 12 75.8736 12C78.408 12 79.596 10.48 79.596 8.8C79.596 5.6 74.6856 6.48 74.6856 4.88C74.6856 4.4 75.1608 4.08 75.9528 4.08C76.9824 4.08 77.9328 4.32 78.8832 4.8L79.3584 2.72C78.2496 2.24 77.1408 2 76.032 2C73.9728 2 72.3888 3.12 72.3888 5.12C72.3888 8.56 77.22 7.68 77.22 9.12ZM84.9816 12C85.8528 12.08 86.6448 11.92 87.4368 11.68V9.44C86.724 9.68 86.0112 9.84 85.2984 9.76C83.8728 9.92 82.6056 8.8 82.4472 7.36C82.4472 7.2 82.4472 7.12 82.4472 6.96C82.2888 5.52 83.3184 4.24 84.744 4.16C84.9024 4.16 85.0608 4.16 85.2192 4.16C85.932 4.16 86.6448 4.24 87.3576 4.48L87.5952 2.32C86.8032 2.08 86.0112 2 85.2192 2.08C82.5264 1.84 80.0712 3.84 79.8336 6.56C79.596 9.28 81.576 11.76 84.2688 12C84.4272 12 84.5856 12 84.744 12H84.9816ZM91.08 8.4H96.624V11.6H99V2H96.624V6H91.08V2H88.704V11.6H91.08V8.4ZM105.732 12C108.821 12 111.355 10.32 111.355 6.96C111.355 3.68 108.979 2 105.732 2C102.485 2 100.03 3.84 100.03 6.96C100.109 10.32 102.643 12 105.732 12ZM105.732 4C107.554 4 108.9 4.96 108.9 6.88C108.9 8.96 107.554 9.92 105.653 9.92C103.752 9.92 102.485 8.96 102.485 6.96C102.485 4.96 103.91 4 105.732 4ZM117.454 12C120.542 12 123.077 10.32 123.077 6.96C123.077 3.68 120.701 2 117.454 2C114.206 2 111.83 3.84 111.83 6.96C111.83 10.32 114.365 12 117.454 12ZM117.454 4C119.275 4 120.622 4.96 120.622 6.88C120.622 8.96 119.275 9.92 117.374 9.92C115.474 9.92 114.206 8.96 114.206 6.96C114.206 4.96 115.632 4 117.454 4ZM133.848 9.2H125.928V2H123.552V11.6H133.848V9.2ZM3.168 11.6H5.544V4.4H8.712V2H0V4.4H3.168V11.6Z" fill="black"/>
<path d="M57 18H3V20H57V18Z" fill="black"/>
<path d="M3 14H186V16H3V14Z" fill="black"/>
<path d="M59 18.3469H72.4519C76.7766 18.3469 78.9279 21.1067 78.9279 24.2794C78.9279 28.0823 75.8204 30.4075 72.4519 30.4075H63.3464V35.7315H59V18.3469ZM63.3464 22.2585V26.7133H71.8216C73.9514 26.7133 74.4295 25.4964 74.4295 24.3882C74.4295 23.4754 73.9514 22.2585 71.8216 22.2585H63.3464Z" fill="#E82E21"/>
<path d="M88.3373 32.4067H81.9698L80.7746 35.7315H76.1458L83.1216 18.3469H87.5983L94.1396 35.7315H89.4238L88.3373 32.4067ZM83.2302 28.8646H87.2072L85.3382 23.0625L83.2302 28.8646Z" fill="#E82E21"/>
<path d="M94.8557 18.3469H103.092C106.982 18.3469 108.916 21.1067 108.916 24.2794C108.952 25.3732 108.687 26.456 108.151 27.41C107.615 28.364 106.827 29.1527 105.874 29.6903L108.916 35.7315H104.026L101.614 30.4075H99.2021V35.7315H94.8557V18.3469ZM99.2021 22.2585V26.7133H102.027C102.341 26.7357 102.657 26.6914 102.952 26.5834C103.248 26.4753 103.518 26.306 103.744 26.0864C103.969 25.8668 104.146 25.602 104.262 25.3094C104.378 25.0167 104.431 24.7028 104.418 24.3882C104.418 23.4754 103.722 22.2585 102.027 22.2585H99.2021Z" fill="#E82E21"/>
<path d="M109.916 23.65C109.916 19.9774 112.849 18 116.631 18C118.825 18 121.238 18.5649 122.607 19.3473L121.781 23.0414C120.149 22.1717 118.328 21.7165 116.478 21.7159C115.131 21.7159 114.218 22.2374 114.218 23.15C114.218 25.9751 123.128 24.3889 123.128 30.2344C123.128 33.3418 120.912 36.08 116.283 36.08C114.305 36.08 112.067 35.8191 110.263 34.9716L110.437 30.9949C112.299 31.901 114.343 32.3693 116.413 32.3639C118.326 32.3639 118.804 31.6903 118.804 30.8863C118.804 28.2787 109.916 29.7998 109.916 23.65Z" fill="#E82E21"/>
<path d="M133.841 18C139.817 18 144.12 21.0857 144.12 26.953C144.12 33.0593 139.47 36.08 133.82 36.08C128.126 36.08 123.475 33.016 123.475 26.9748C123.475 21.2813 127.713 18 133.841 18ZM133.776 32.4292C137.188 32.4292 139.644 30.6907 139.644 26.8661C139.644 23.3892 137.188 21.6507 133.798 21.6507C130.408 21.6507 127.952 23.3457 127.952 26.9965C127.952 30.6689 130.408 32.4292 133.776 32.4292Z" fill="#E82E21"/>
<path d="M150.509 23.5413H149.423V35.7323H145.076V18.3477H151.183L162.679 29.3213H163.765V18.3477H168.111V35.7323H162.853L150.509 23.5413Z" fill="#E82E21"/>
<path d="M169.697 23.65C169.697 19.9774 173.174 18 177.825 18C180.78 18 183.844 18.5649 185.213 19.3473L184.388 23.0414C182.932 22.1723 179.998 21.7159 177.673 21.7159C175.173 21.7159 174 22.2374 174 23.15C174 26.149 185.735 23.8238 185.735 30.2344C185.735 33.3418 183.084 36.08 177.477 36.08C174.956 36.08 171.848 35.8191 170.045 34.9716L170.219 30.9949C172.022 31.8642 174.652 32.3639 177.607 32.3639C180.454 32.3639 181.41 31.6903 181.41 30.8863C181.41 28.083 169.697 30.3213 169.697 23.65Z" fill="#E82E21"/>
</svg>
