<svg xmlns="http://www.w3.org/2000/svg" viewBox="0 0 800 800"><defs><style>.cls-1{fill:#fff;}.cls-2{fill:#f8c5d7;}.cls-2,.cls-3{opacity:0.6;}.cls-3{fill:#fdf4c4;}</style></defs><g id="Layer_1" data-name="Layer 1"><rect class="cls-1" width="800" height="800"/><path class="cls-2" d="M681.89,236.34,676,44.35l-475,11.86q1.84,55.54,3.68,111.08A211.26,211.26,0,1,1,0,435.19V800H434l35.59-15.33-89.7-215.55L620,648.69l99.6-179.55L465.2,316Z"/><path class="cls-3" d="M0,0V435.19a211.19,211.19,0,1,0,204.73-267.9q-1.84-55.54-3.68-111.08L676,44.35l5.85,192L465.2,316,719.59,469.14,620,648.69,379.84,569.12l89.7,215.55L434,800H800V0Z"/></g></svg>